<svg width="80" height="80" viewBox="0 0 80 80" fill="none" xmlns="http://www.w3.org/2000/svg">
<rect width="80" height="80" rx="20" fill="#005CE5"/>
<mask id="mask0_196_31" style="mask-type:alpha" maskUnits="userSpaceOnUse" x="15" y="15" width="70" height="70">
<rect x="15" y="15" width="70" height="70" fill="#D9D9D9"/>
</mask>
<g mask="url(#mask0_196_31)">
<path d="M27.1665 59.8333V50.5H18.5063V37.2179C18.5063 35.5652 19.071 34.1798 20.2002 33.0617C21.3295 31.9437 22.7093 31.3847 24.3396 31.3847H55.66C56.8715 31.3847 57.9507 31.71 58.8975 32.3606C59.8442 33.0112 60.5285 33.8526 60.9503 34.8846H24.3396C23.6785 34.8846 23.1243 35.1082 22.6771 35.5554C22.2298 36.0026 22.0062 36.5568 22.0062 37.2179V47H27.1665V42.8718H49.4678V46.3718H30.6665V56.3333H49.4678V59.8333H27.1665ZM27.1665 31.3847V20.8848H52.8331V31.3847H49.3331V24.3847H30.6665V31.3847H27.1665ZM56.3339 59.8333C55.762 59.8333 55.2824 59.6399 54.895 59.253C54.5076 58.8661 54.3139 58.3867 54.3139 57.8148C54.3139 57.2429 54.5073 56.7633 54.8942 56.3759C55.2811 55.9886 55.7605 55.7949 56.3324 55.7949C56.9042 55.7949 57.3839 55.9883 57.7713 56.3751C58.1586 56.762 58.3523 57.2414 58.3523 57.8133C58.3523 58.3852 58.1589 58.8648 57.772 59.2522C57.3852 59.6396 56.9058 59.8333 56.3339 59.8333ZM54.5832 50.2307V39.7307H58.0831V50.2307H54.5832Z" fill="white"/>
</g>
</svg>
