<svg width="138" height="127" viewBox="0 0 138 127" fill="none" xmlns="http://www.w3.org/2000/svg">
<path 
d="M101.667 33.3588V8.8588H36.3332V33.3588H28.1665V0.692139H109.833V33.3588H101.667ZM114.859 61.9421C117.173 61.9421 119.112 61.1595 120.678 59.5942C122.243 58.0289 123.025 56.0894 123.025 53.7755C123.025 51.4616 122.243 49.522 120.678 47.9567C119.112 46.3914 117.173 45.6088 114.859 45.6088C112.545 45.6088 110.605 46.3914 109.04 47.9567C107.475 49.522 106.692 51.4616 106.692 53.7755C106.692 56.0894 107.475 58.0289 109.04 59.5942C110.605 61.1595 112.545 61.9421 114.859 61.9421ZM101.667 118.167V81.1026H36.3332V118.167H101.667ZM109.833 126.333H28.1665V93.6666H0.211426V49.6921C0.211426 45.0644 1.78195 41.1852 4.92298 38.0546C8.06402 34.9241 11.9379 33.3588 16.5448 33.3588H121.455C126.083 33.3588 129.962 34.9241 133.092 38.0546C136.223 41.1852 137.788 45.0644 137.788 49.6921V93.6666H109.833V126.333ZM129.622 85.4999V49.6921C129.622 47.3782 128.839 45.4387 127.274 43.8734C125.708 42.3081 123.769 41.5255 121.455 41.5255H16.5448C14.2309 41.5255 12.2913 42.3081 10.726 43.8734C9.16073 45.4387 8.37809 47.3782 8.37809 49.6921V85.4999H28.1665V72.9357H109.833V85.4999H129.622Z" 
fill="#005CE5"/>
</svg>
