<svg width="60" height="60" viewBox="0 0 60 60" fill="none" xmlns="http://www.w3.org/2000/svg">
<rect width="60" height="60" rx="20" fill="#fff"/>
<path fill-rule="evenodd" clip-rule="evenodd" d="M16.3561 28.1928C23.6039 24.5236 28.4368 22.1047 30.855 20.9359C37.7594 17.599 39.1941 17.0193 40.1292 17.0002C40.3349 16.996 40.7947 17.0552 41.0926 17.3361C41.3441 17.5732 41.4133 17.8936 41.4464 18.1184C41.4795 18.3433 41.5208 18.8555 41.488 19.2557C41.1138 23.8237 39.4949 34.9091 38.6713 40.0253C38.3228 42.1902 37.6365 42.9161 36.9722 42.9871C35.5284 43.1415 34.4321 41.8784 33.0337 40.8133C30.8455 39.1466 29.6094 38.1091 27.4854 36.4827C25.0307 34.6031 26.622 33.57 28.0209 31.8817C28.387 31.4399 34.7483 24.7166 34.8714 24.1067C34.8868 24.0304 34.9011 23.7461 34.7557 23.5959C34.6103 23.4458 34.3958 23.4971 34.241 23.538C34.0215 23.5958 30.5259 26.2806 23.7541 31.5921C22.7618 32.3838 21.8631 32.7696 21.0579 32.7494C20.1702 32.7271 18.4626 32.1661 17.1932 31.6867C15.6362 31.0986 14.3988 30.7877 14.5065 29.7889C14.5627 29.2687 15.1792 28.7367 16.3561 28.1928Z" fill="#005CE5"/>
</svg>
