<svg width="24" height="24" viewBox="0 0 24 24" fill="none" xmlns="http://www.w3.org/2000/svg">
<rect width="24" height="24" rx="7.73333" fill="white"/>
<path d="M12.6804 17.0531C8.23084 17.0531 5.52915 13.8576 5.42578 8.54639H7.67641C7.74689 12.4374 9.46187 14.1056 10.7775 14.4412V8.54639H12.9388V11.9121C14.2028 11.7662 15.5325 10.239 15.9788 8.54639H18.1026C17.9371 9.41503 17.6016 10.2394 17.1168 10.9688C16.6319 11.6982 16.008 12.3171 15.2834 12.7876C16.0892 13.2212 16.7981 13.8248 17.3646 14.5595C17.9311 15.2942 18.3426 16.1436 18.5724 17.0531H16.2231C16.0264 16.2661 15.61 15.5566 15.0258 15.0133C14.4416 14.4701 13.7157 14.1171 12.9388 13.9986V17.0336L12.6804 17.0531Z" fill="#005CE5"/>
</svg>
