<svg width="24" height="24" viewBox="0 0 24 24" fill="none" xmlns="http://www.w3.org/2000/svg">
<rect width="24" height="24" rx="7.73333" fill="white"/>
<path fill-rule="evenodd" clip-rule="evenodd" d="M7.12395 11.7014C9.92641 10.2827 11.7952 9.34734 12.7302 8.89543C15.3999 7.60515 15.9546 7.38102 16.3162 7.37361C16.3957 7.37199 16.5735 7.39489 16.6887 7.50348C16.786 7.59518 16.8127 7.71905 16.8255 7.80599C16.8383 7.89293 16.8543 8.09098 16.8416 8.24573C16.6969 10.012 16.0709 14.2984 15.7525 16.2767C15.6177 17.1137 15.3524 17.3944 15.0955 17.4219C14.5372 17.4816 14.1133 16.9932 13.5726 16.5813C12.7265 15.9369 12.2485 15.5357 11.4273 14.9068C10.4781 14.1801 11.0934 13.7806 11.6343 13.1278C11.7759 12.957 14.2356 10.3573 14.2832 10.1215C14.2891 10.092 14.2947 9.98202 14.2385 9.92396C14.1822 9.86591 14.0993 9.88576 14.0394 9.90155C13.9546 9.92393 12.6029 10.962 9.98449 13.0158C9.60083 13.322 9.25332 13.4711 8.94197 13.4633C8.59873 13.4547 7.93846 13.2378 7.44763 13.0524C6.8456 12.825 6.36711 12.7048 6.40878 12.3186C6.43048 12.1174 6.66887 11.9117 7.12395 11.7014Z" fill="#005CE5"/>
</svg>
