<svg width="60" height="60" viewBox="0 0 60 60" fill="none" xmlns="http://www.w3.org/2000/svg">
<rect width="60" height="60" rx="20" fill="white"/>
<path d="M31.762 41C20.2545 41 13.2673 32.7358 13 19H18.8206C19.0029 29.0629 23.4382 33.3774 26.8406 34.2453V19H32.4303V27.7044C35.6991 27.327 39.138 23.3774 40.2923 19H45.7848C45.3568 21.2465 44.4892 23.3785 43.2353 25.2649C41.9814 27.1512 40.3679 28.7519 38.4939 29.9686C40.5777 31.09 42.4112 32.6511 43.8763 34.5512C45.3414 36.4512 46.4055 38.6481 47 41H40.9242C40.4155 38.9647 39.3384 37.1299 37.8277 35.7249C36.3169 34.3199 34.4395 33.4071 32.4303 33.1006V40.9497L31.762 41Z" fill="#005CE5"/>
</svg>
