<svg width="325" height="324" viewBox="0 0 325 324" fill="none" xmlns="http://www.w3.org/2000/svg">
<rect x="0.163086" width="324" height="324" rx="40" fill="#005CE5"/>
<mask id="mask0_92_591" style="mask-type:alpha" maskUnits="userSpaceOnUse" x="64" y="64" width="197" height="196">
<rect x="64.1631" y="64" width="196" height="196" fill="#D9D9D9"/>
</mask>
<g mask="url(#mask0_92_591)">
<path d="M194.83 134.359V109.859H129.496V134.359H121.33V101.692H202.996V134.359H194.83ZM208.022 162.942C210.336 162.942 212.275 162.16 213.841 160.594C215.406 159.029 216.189 157.09 216.189 154.776C216.189 152.462 215.406 150.522 213.841 148.957C212.275 147.392 210.336 146.609 208.022 146.609C205.708 146.609 203.768 147.392 202.203 148.957C200.638 150.522 199.855 152.462 199.855 154.776C199.855 157.09 200.638 159.029 202.203 160.594C203.768 162.16 205.708 162.942 208.022 162.942ZM194.83 219.167V182.103H129.496V219.167H194.83ZM202.996 227.333H121.33V194.667H93.3745V150.692C93.3745 146.065 94.945 142.185 98.0861 139.055C101.227 135.924 105.101 134.359 109.708 134.359H214.618C219.246 134.359 223.125 135.924 226.256 139.055C229.386 142.185 230.951 146.065 230.951 150.692V194.667H202.996V227.333ZM222.785 186.5V150.692C222.785 148.378 222.002 146.439 220.437 144.874C218.872 143.308 216.932 142.526 214.618 142.526H109.708C107.394 142.526 105.454 143.308 103.889 144.874C102.324 146.439 101.541 148.378 101.541 150.692V186.5H121.33V173.936H202.996V186.5H222.785Z" fill="white"/>
</g>
</svg>
