<svg width="336" height="402" viewBox="0 0 336 402" fill="none" xmlns="http://www.w3.org/2000/svg">
<rect width="336" height="402" rx="40" fill="#005CE5"/>
<mask id="mask0_276_330" style="mask-type:alpha" maskUnits="userSpaceOnUse" x="70" y="103" width="196" height="196">
<rect x="70" y="103" width="196" height="196" fill="#D9D9D9"/>
</mask>
<g mask="url(#mask0_276_330)">
<path d="M200.667 173.359V148.859H135.333V173.359H127.167V140.692H208.833V173.359H200.667ZM213.859 201.942C216.173 201.942 218.112 201.16 219.678 199.594C221.243 198.029 222.025 196.089 222.025 193.776C222.025 191.462 221.243 189.522 219.678 187.957C218.112 186.392 216.173 185.609 213.859 185.609C211.545 185.609 209.605 186.392 208.04 187.957C206.475 189.522 205.692 191.462 205.692 193.776C205.692 196.089 206.475 198.029 208.04 199.594C209.605 201.16 211.545 201.942 213.859 201.942ZM200.667 258.167V221.103H135.333V258.167H200.667ZM208.833 266.333H127.167V233.667H99.2114V189.692C99.2114 185.064 100.782 181.185 103.923 178.055C107.064 174.924 110.938 173.359 115.545 173.359H220.455C225.083 173.359 228.962 174.924 232.092 178.055C235.223 181.185 236.788 185.064 236.788 189.692V233.667H208.833V266.333ZM228.622 225.5V189.692C228.622 187.378 227.839 185.439 226.274 183.874C224.708 182.308 222.769 181.526 220.455 181.526H115.545C113.231 181.526 111.291 182.308 109.726 183.874C108.161 185.439 107.378 187.378 107.378 189.692V225.5H127.167V212.936H208.833V225.5H228.622Z" fill="white"/>
</g>
</svg>
